<svg height="100%" style="fill-rule:evenodd;clip-rule:evenodd;stroke-linecap:round;stroke-linejoin:round;" xmlns:xlink="http://www.w3.org/1999/xlink" xmlns="http://www.w3.org/2000/svg" xml:space="preserve" width="100%" xmlns:vectornator="http://vectornator.io" version="1.1" viewBox="0 0 3024 4032">

<g id="Layer 1" vectornator:layerName="Layer 1">
<path d="M1899.28+1593.51C2039.13+1522.55+2194.51+1307.17+2194.51+1307.17L2269.51+1368.9C2269.51+1368.9+2228.66+1476.47+2149.51+1561.63C2110+1604.14+2018.59+1714.73+1911.25+1781.23C1803.92+1847.74+1638.14+1696.69+1638.14+1696.69C1638.14+1696.69+1656.72+1618.34+1635.12+1590.98C1611.45+1561+1759.43+1664.46+1899.28+1593.51Z" opacity="1" fill="#c4874a"/>
<path d="M1167.61+3668.36L1103.72+4102.77L1250.08+4102.63L1443.83+3543.67C1488.24+3445.64+1167.61+3668.36+1167.61+3668.36Z" opacity="1" fill="#c4874a"/>
<path d="M1662.08+3664.74C1749.05+3646.29+1783.54+3645.11+1863.32+3577.97C2010.5+3454.1+1978.15+3542.37+2080.04+3438.73C2090.43+3428.17+2123.48+3359.8+2126.1+3318.66C2128.32+3283.7+2138.58+3235.61+2138.58+3235.61C2138.58+3235.61+1905+3278.38+1823.81+3302.32C1774.02+3317.01+1627.12+3356.85+1557.84+3431.49C1531.81+3459.53+1323.58+3624.47+1323.58+3624.47C1323.58+3624.47+1418.7+3566.3+1516.5+3568.64C1545.95+3569.34+1529.13+3651.32+1587.57+3682.56" opacity="1" fill="#0b4b90"/>
<path d="M1673.85+3352.32C1733.61+3404.64+1489.73+4100.67+1489.73+4100.67L1395.84+4018.08L1440.68+3520.81" opacity="1" fill="#e2a76b"/>
<path d="M1020.98+945.931C1020.98+945.931+1092.45+945.926+1162.87+991.554C1334.09+1086.35+1377.96+1197.65+1283.95+1320.28C1128.45+1523.12+1374.84+1461.13+1275.57+1538.88C1103.29+1673.82+1159.91+1485.48+1095.44+1467.55C1030.96+1449.63+1064.16+1483.2+970.582+1438.15C956.082+1431.17+892.653+1347.38+897.68+1297.21C899.492+1279.13+900.465+1258.89+913.066+1245.49C922.771+1235.17+918.053+1228.06+948.873+1223.86C974.445+1220.38+1000.1+1285.48+1011.91+1262.51C1056.68+1175.49+1026.76+1091.2+1026.76+1091.2" opacity="1" fill="#e2a76b"/>
<path d="M1566.44+1658.77C1566.44+1658.77+1351.8+1671.55+1337.65+1723.68C1323.51+1775.81+1330.21+1806.69+1419.46+1857.44C1508.72+1908.18+1668.37+1974.65+1757.73+1984.13C1847.09+1993.61+1917.18+2002.94+2031.08+1982.24C2144.97+1961.53+2300.74+1827.35+2350.53+1767.59C2400.33+1707.83+2493.98+1611.36+2493.98+1611.36C2493.98+1611.36+2484+1610.85+2530.15+1598.7C2576.31+1586.55+2620.27+1596.59+2678.61+1562.75C2734.03+1530.61+2759.37+1497.11+2782.71+1432.11C2795.47+1396.58+2783.52+1354.91+2691.77+1412.34C2611.02+1462.89+2541.5+1425.14+2404.15+1475.85C2346.04+1497.3+2386.01+1513.74+2299.87+1608.87C2163.19+1759.82+2101.71+1829.33+1813.76+1775.16C1702.45+1754.22+1678.96+1715.31+1678.96+1715.31" opacity="1" fill="#e2a76b"/>
<path d="M1981.32+1084.85L2125.78+944.942C2132.82+938.124+2143.94+938.469+2150.61+945.711L2421.82+1240.11C2428.49+1247.35+2428.19+1258.75+2421.15+1265.57L2276.69+1405.48C2269.65+1412.29+2258.53+1411.95+2251.86+1404.71L1980.66+1110.31C1973.98+1103.06+1974.28+1091.66+1981.32+1084.85Z" opacity="1" fill="#b6d2f0"/>
<path d="M1051.38+1659.6C1031.24+1831.85+1180.01+1987.88+1165.9+2096.96C1141.94+2282.25+1122.69+2371.88+1031.98+2477.52C779.567+2771.45+572.807+2772.35+299.236+3001.98C324.669+3154.96+577.524+3258.86+818.588+3499.92C1333.35+4014.69+1570.46+3223.56+2131.45+3281.59C2234.39+3292.24+2179.16+2893.7+2163.28+2649.17C2159.19+2586.25+2056.85+2452.25+1943.5+2321.64C1867.61+2234.18+1809.09+2065.24+1769.98+2021.14C1719.15+1963.83+1507.68+1897.65+1451.74+1872.61C1378.72+1839.92+1327.14+1769.24+1348.52+1734.36C1359.45+1716.53+1367.51+1695.67+1404.9+1694.29C1430.93+1693.33+1537.88+1688.04+1553.06+1661.92C1564.3+1642.58+1519.71+1588.16+1483.9+1559.64C1448.96+1531.81+1402.44+1510.41+1316.31+1517.75C1215.16+1526.37+1152.55+1570.03+1140.43+1558.08" opacity="1" fill="#2c80da"/>
<path d="M1100.29+821.704C1234.76+829.635+1257.62+936.67+1361.39+990.149C1449.02+1012.54+1499.55+962.396+1509.54+1038.49C1519.53+1114.58+1486.42+1147.98+1531.89+1261.79C1591.4+1410.79+1656.72+1409.98+1660.12+1505.05C1662.11+1560.63+1693.78+1675.86+1643.64+1695.61C1607.73+1681.43+1555.09+1658.54+1555.09+1658.54C1555.09+1658.54+1549.04+1605.22+1466.67+1554.09C1462.59+1536.84+1373.69+1555.46+1328.11+1541.21C1282.53+1526.96+1224.93+1514.69+1216.6+1475.61C1208.26+1436.54+1218.19+1402.47+1254.68+1359.93C1281.24+1328.95+1280.91+1321.08+1288.09+1307.52C1350.28+1190.2+1186.52+965.418+1083.26+962.678C980.005+959.938+965.825+813.773+1100.29+821.704Z" opacity="1" fill="#093d74"/>
<path d="M1210.58+4714.02" opacity="1" fill="#2c80da"/>
<path d="M1105.86+2347.54C1105.86+2347.54+964.632+2130.11+630.791+2200.2C296.951+2270.3+295.936+2009.54+295.936+2009.54C295.936+2009.54+363.379+1706.65+561.809+1595.23C760.238+1483.8+676.811+1487.62+711.273+1332.72C717.766+1294.5+621.164+1035.83+754.104+919.054C887.045+802.281+1100.88+785.83+1064.98+837.821C1029.81+888.741+1042.62+1025.15+1036.21+1074.29C1029.09+1128.95+1055.54+1155.96+1048.78+1194.2C1045.21+1214.37+1054+1234.09+1002.65+1270.98C1003.71+1292.72+990.832+1232.86+951.243+1229.08C912.543+1225.38+899.224+1290.77+902.584+1319.01C906.108+1348.63+928.556+1375.45+957.548+1417.92C996.131+1474.45+1047.47+1442.46+1047.47+1442.46C1047.47+1442.46+1115.75+1439.98+1142.35+1528.91C1164.9+1604.32+1056.13+1599.39+1069.87+1702.72C1092.68+1874.25+1226.82+2153.39+1196.71+2191.77" opacity="1" fill="#0b4b90"/>
<path d="M818.546+1333.36C794.252+1318.56+887.72+1453.01+784.894+1567.06C724.533+1634+780.707+1712.18+743.974+1765.65C656.25+1893.36+454.716+2053.83+497.817+2128.27C667.609+2154.4+799.126+1975.95+892.832+2035.89C1182.79+2221.35+871.281+1920.3+890.22+1803.4C897.861+1756.24+978.928+1679.47+979.995+1623.34C981.094+1565.59+979.005+1551.5+940.068+1481.06C923.066+1450.3+831.056+1373.25+818.546+1333.36Z" opacity="1" fill="#093d74"/>
<path d="M1027.46+848.663C1023.16+831.108+972.571+890.235+956.78+891.384C916.796+894.293+891.72+883.602+871.8+954.284C860.208+995.418+748.914+1049.2+764.956+1062.62C787.367+1081.35+877.961+1070.43+952.467+951.208" opacity="1" fill="#093d74"/>
<path d="M980.662+1104.31L841.89+1228.16L980.662+1104.31Z" opacity="1" fill="#093d74"/>
<path d="M984.779+1147.69L846.811+1246.17L984.779+1147.69Z" opacity="1" fill="#093d74"/>
<path d="M1320.47+1120.45C1312.32+1134.25+1350.37+1148.85+1362.61+1194.6C1381.95+1266.89+1285.05+1475.61+1379.04+1386.31C1375.17+1378.55+1431.47+1317.14+1461.87+1327.69C1493.36+1301.68+1433.2+1245.47+1427.13+1236.21C1382.55+1168.16+1370.84+1093.72+1322.12+1102.75" opacity="1" fill="#2c80da"/>
</g>
</svg>
