<?xml version="1.0" encoding="UTF-8"?>
<svg width="29px" height="26px" viewBox="0 0 29 26" version="1.1" xmlns="http://www.w3.org/2000/svg" xmlns:xlink="http://www.w3.org/1999/xlink">
    <!-- Generator: Sketch 55.1 (78136) - https://sketchapp.com -->
    <title>Shape</title>
    <desc>Created with Sketch.</desc>
    <g id="Page-1" stroke="none" stroke-width="1" fill="none" fill-rule="evenodd">
        <g id="Desktop-Copy-16" transform="translate(-1352.000000, -310.000000)" fill="#5E69AF" fill-rule="nonzero">
            <g id="iconfinder_star-half-o_1608396" transform="translate(1352.000000, 310.000000)">
                <g id="Shape">
                    <path d="M20.3731588,16.3476764 L25,12.2598967 L18.5908347,11.4096386 L17.4026187,11.2461274 L16.8625205,10.2650602 L14,5 L14,20.7461274 L15.0621931,21.253012 L20.787234,24 L19.7070376,18.1953528 L19.4909984,17.116179 L20.3731588,16.3476764 Z M28.5480938,10.8620038 L22.2214074,16.6616257 L23.7202918,24.8531821 C23.7783881,25.2136106 23.7435303,25.494854 23.6157185,25.6969124 C23.4879066,25.8989708 23.2903792,26 23.0231363,26 C22.8256089,26 22.5932237,25.9344675 22.3259807,25.8034026 L14.5004099,21.936988 L6.6748391,25.8034026 C6.40759614,25.9344675 6.17521097,26 5.97768357,26 C5.71044062,26 5.51291322,25.8989708 5.38510137,25.6969124 C5.25728952,25.494854 5.22243174,25.2136106 5.28052804,24.8531821 L6.77941243,16.6616257 L0.435297111,10.8620038 C0.0634808287,10.5124974 -0.0701406478,10.1875656 0.0344326816,9.88720857 C0.139006011,9.5868515 0.452725999,9.3984457 0.975592646,9.32199118 L9.72489454,8.12602394 L13.6463944,0.671707624 C13.8787796,0.223902541 14.1634514,0 14.5004099,0 C14.8257492,0 15.110421,0.223902541 15.3544254,0.671707624 L19.2759253,8.12602394 L28.0252272,9.32199118 C28.5480938,9.3984457 28.8618138,9.5868515 28.9663871,9.88720857 C29.0709605,10.1875656 28.9315294,10.5124974 28.5480938,10.8620038 Z"></path>
                </g>
            </g>
        </g>
    </g>
</svg>