<svg height="511pt" viewBox="0 -41 511.998 511" width="511pt" xmlns="http://www.w3.org/2000/svg"><path d="m489.65625 294.902344c-12.808594-13.222656-29.5-21.460938-47.570312-23.597656-7.671876-72.046876-68.835938-127.570313-142.039063-127.570313-12.679687 0-25.179687 1.683594-37.234375 4.929687 1.417969-8.101562 2.148438-16.347656 2.148438-24.640624 0-7.300782-.578126-14.703126-1.714844-22-.636719-4.089844-4.480469-6.890626-8.566406-6.253907-4.089844.640625-6.894532 4.476563-6.253907 8.566407 1.019531 6.535156 1.535157 13.15625 1.535157 19.6875 0 10.21875-1.226563 20.351562-3.621094 30.171874-8.242188 3.347657-16.195313 7.460938-23.746094 12.339844-21.238281 13.730469-38.390625 32.75-49.835938 55.179688-4.261718-.527344-8.574218-.804688-12.921874-.804688-26.082032 0-50.066407 9.660156-68.441407 25.664063-31.246093-8.136719-58.816406-28.5-75.875-56.136719-1.046875-1.691406-.296875-3.089844.246094-3.769531.535156-.679688 1.714844-1.71875 3.585937-1.09375 13.316407 4.464843 27.253907 6.734375 41.425782 6.746093h.128906c34.828125 0 67.625-13.597656 92.347656-38.296874 24.753906-24.726563 38.382813-57.554688 38.382813-92.4375 0-14.214844-2.269531-28.199219-6.746094-41.558594-.625-1.867188.414063-3.046875 1.089844-3.582032.683593-.542968 2.078125-1.292968 3.777343-.246093 22.507813 13.894531 39.859376 34.085937 50.179688 58.394531 1.617188 3.8125 6.023438 5.589844 9.832031 3.972656 3.8125-1.621094 5.59375-6.023437 3.972657-9.835937-11.539063-27.179688-30.9375-49.757813-56.105469-65.296875-6.621094-4.085938-14.855469-3.59375-20.976563 1.257812-6.105468 4.84375-8.457031 12.734375-5.988281 20.101563 3.960937 11.820312 5.96875 24.199219 5.96875 36.792969 0 30.871093-12.070313 59.929687-33.988281 81.824218-21.890625 21.871094-50.917969 33.910156-81.746094 33.910156-.035156 0-.074219 0-.113281 0-12.550781-.011718-24.890625-2.019531-36.675781-5.96875-7.367188-2.46875-15.257813-.117187-20.101563 5.992188-4.855469 6.121094-5.347656 14.351562-1.257813 20.972656 17.585938 28.496094 45.171876 50.078125 76.769532 60.40625-12.367188 14.910156-20.679688 33.335938-23.171875 53.625-28.625 4.179688-50.183594 28.589844-50.183594 58.230469 0 32.464844 26.410156 58.875 58.875 58.875h15.167969c4.140625 0 7.5-3.359375 7.5-7.5s-3.359375-7.5-7.5-7.5h-15.171875c-24.191407 0-43.875-19.683594-43.875-43.875 0-23.765625 18.597656-43.019531 42.339843-43.835937 3.867188-.132813 6.996094-3.183594 7.230469-7.042969 2.84375-46.984375 41.980469-83.789063 89.097657-83.789063 37.023437 0 70.625 23.289063 83.617187 57.949219 1.082031 2.894531 3.835937 4.828125 6.929687 4.867187 9.640626.117188 19.164063 2.65625 27.542969 7.351563 3.609375 2.023437 8.183594.738281 10.207031-2.875 2.027344-3.613281.738282-8.1875-2.875-10.210937-9.082031-5.085938-19.230468-8.171876-29.621093-9.027344-7.605469-17.6875-19.886719-32.835938-35.753907-44.035156-9.757812-6.886719-20.476562-11.964844-31.773437-15.136719 10.199219-18.453125 24.804687-34.132813 42.628906-45.65625 20.644531-13.347657 44.609375-20.402344 69.308594-20.402344 67.488281 0 123.542969 52.714844 127.613281 120.011719.234375 3.859375 3.363282 6.910156 7.230469 7.042968 16.714844.574219 32.335937 7.519532 43.992187 19.550782 11.683594 12.0625 18.117188 27.953125 18.117188 44.75 0 35.492187-28.871094 64.363281-64.363281 64.363281h-138.75c17.40625-13.328125 28.660156-34.308594 28.660156-57.871094 0-13.613281-3.796875-26.902343-10.972656-38.4375-2.191407-3.515625-6.816407-4.589843-10.332031-2.402343-3.515626 2.1875-4.59375 6.8125-2.402344 10.328124 5.695312 9.152344 8.707031 19.703126 8.707031 30.511719 0 31.910157-25.964844 57.871094-57.875 57.871094h-136.800781c-4.140625 0-7.5 3.359375-7.5 7.5 0 4.144531 3.359375 7.5 7.5 7.5h319.765625c43.761719 0 79.359375-35.601563 79.359375-79.363281 0-20.714844-7.933594-40.3125-22.339844-55.1875zm0 0"/><path d="m399.316406 270.136719c.578125 0 1.167969-.070313 1.757813-.210938 4.027343-.964843 6.507812-5.015625 5.542969-9.042969-1.457032-6.054687-3.449219-12.023437-5.921876-17.746093-1.648437-3.800781-6.058593-5.550781-9.863281-3.902344-3.800781 1.644531-5.550781 6.058594-3.90625 9.859375 2.136719 4.929688 3.851563 10.078125 5.105469 15.292969.824219 3.4375 3.894531 5.75 7.285156 5.75zm0 0"/><path d="m368.332031 221.152344c1.472657 1.535156 3.441407 2.304687 5.410157 2.304687 1.871093 0 3.738281-.691406 5.191406-2.089843 2.988281-2.867188 3.085937-7.613282.21875-10.601563-20.90625-21.785156-49-33.78125-79.105469-33.78125-4.144531 0-7.5 3.359375-7.5 7.5 0 4.144531 3.355469 7.5 7.5 7.5 25.980469 0 50.230469 10.359375 68.285156 29.167969zm0 0"/><path d="m450.574219 166.3125h.039062c4.125 0 7.480469-3.335938 7.5-7.464844l.015625-2.9375c.019532-4.140625-3.320312-7.515625-7.464844-7.539062-.011718 0-.023437 0-.039062 0-4.121094 0-7.476562 3.335937-7.496094 7.464844l-.015625 2.9375c-.019531 4.140624 3.320313 7.515624 7.460938 7.539062zm0 0"/><path d="m450.570312 178.273438c-.015624 0-.023437 0-.035156 0-4.125 0-7.480468 3.335937-7.5 7.464843l-.015625 2.9375c-.019531 4.144531 3.324219 7.515625 7.464844 7.535157h.035156c4.125 0 7.480469-3.332032 7.5-7.464844l.015625-2.9375c.019532-4.140625-3.324218-7.515625-7.464844-7.535156zm0 0"/><path d="m464.046875 179.832031 2.945313.015625h.035156c4.128906 0 7.480468-3.335937 7.5-7.464844.019531-4.144531-3.324219-7.515624-7.464844-7.535156l-2.945312-.015625c-.011719 0-.023438 0-.035157 0-4.125 0-7.480469 3.335938-7.5 7.464844-.019531 4.140625 3.324219 7.515625 7.464844 7.535156zm0 0"/><path d="m434.117188 164.738281c-4.125 0-7.476563 3.335938-7.496094 7.464844-.019532 4.144531 3.320312 7.515625 7.464844 7.535156l2.941406.015625h.035156c4.128906 0 7.480469-3.335937 7.5-7.464844.019531-4.144531-3.324219-7.515624-7.464844-7.535156l-2.941406-.015625c-.011719 0-.023438 0-.039062 0zm0 0"/><path d="m410.269531 113.707031h.035157c4.125 0 7.476562-3.335937 7.5-7.464843l.011718-2.9375c.019532-4.144532-3.324218-7.515626-7.464844-7.535157-.011718 0-.023437 0-.035156 0-4.125 0-7.480468 3.332031-7.5 7.464844l-.015625 2.9375c-.019531 4.140625 3.324219 7.515625 7.46875 7.535156zm0 0"/><path d="m410.257812 125.667969c-4.179687 0-7.515624 3.324219-7.535156 7.464843l-.011718 2.9375c-.019532 4.144532 3.320312 7.515626 7.464843 7.535157h.035157c4.125 0 7.480468-3.332031 7.5-7.464844l.011718-2.9375c.019532-4.140625-3.324218-7.515625-7.464844-7.535156zm0 0"/><path d="m423.738281 127.226562 2.941407.015626h.039062c4.125 0 7.476562-3.335938 7.496094-7.464844.019531-4.144532-3.320313-7.515625-7.460938-7.535156l-2.945312-.015626c-.011719 0-.023438 0-.035156 0-4.125 0-7.480469 3.332032-7.5 7.464844-.019532 4.140625 3.324218 7.515625 7.464843 7.535156zm0 0"/><path d="m393.773438 127.132812 2.941406.015626h.039062c4.125 0 7.480469-3.335938 7.5-7.464844.019532-4.140625-3.324218-7.515625-7.464844-7.535156l-2.945312-.015626c-.011719 0-.023438 0-.035156 0-4.125 0-7.480469 3.335938-7.5 7.464844-.019532 4.144532 3.324218 7.515625 7.464844 7.535156zm0 0"/><path d="m279.25 18.4375h.035156c4.125 0 7.476563-3.335938 7.5-7.464844l.011719-2.9375c.019531-4.144531-3.324219-7.515625-7.464844-7.535156-.011719 0-.023437 0-.035156 0-4.125 0-7.480469 3.335938-7.5 7.464844l-.015625 2.9375c-.015625 4.140625 3.324219 7.515625 7.46875 7.535156zm0 0"/><path d="m279.238281 30.398438c-.011719 0-.023437 0-.035156 0-4.125 0-7.480469 3.335937-7.5 7.46875l-.011719 2.9375c-.019531 4.140624 3.320313 7.515624 7.464844 7.535156h.035156c4.125 0 7.480469-3.335938 7.5-7.464844l.011719-2.941406c.019531-4.140625-3.320313-7.511719-7.464844-7.535156zm0 0"/><path d="m292.71875 31.957031 2.941406.015625h.039063c4.125 0 7.476562-3.335937 7.5-7.464844.019531-4.140624-3.324219-7.515624-7.464844-7.535156l-2.945313-.015625c-4.160156.015625-7.515624 3.320313-7.535156 7.464844-.019531 4.140625 3.324219 7.515625 7.464844 7.535156zm0 0"/><path d="m262.753906 31.867188 2.945313.011718h.035156c4.125 0 7.480469-3.332031 7.5-7.464844.019531-4.140624-3.324219-7.515624-7.464844-7.535156l-2.945312-.011718c-.011719 0-.023438 0-.035157 0-4.125 0-7.480468 3.335937-7.5 7.464843-.019531 4.140625 3.324219 7.515625 7.464844 7.535157zm0 0"/><path d="m53.195312 121.457031h.035157c4.125 0 7.476562-3.335937 7.5-7.464843l.011719-2.9375c.019531-4.140626-3.324219-7.515626-7.464844-7.535157-.011719 0-.023438 0-.035156 0-4.125 0-7.480469 3.335938-7.5 7.464844l-.011719 2.9375c-.019531 4.140625 3.320312 7.515625 7.464843 7.535156zm0 0"/><path d="m53.1875 133.421875c-.011719 0-.023438 0-.039062 0-4.121094 0-7.476563 3.332031-7.496094 7.460937l-.015625 2.9375c-.023438 4.140626 3.320312 7.515626 7.460937 7.539063h.039063c4.125 0 7.480469-3.332031 7.5-7.460937l.015625-2.941407c.019531-4.140625-3.320313-7.515625-7.464844-7.535156zm0 0"/><path d="m66.664062 134.980469 2.945313.011719h.035156c4.125 0 7.476563-3.335938 7.5-7.464844.019531-4.140625-3.324219-7.515625-7.464843-7.535156l-2.945313-.015626c-.011719 0-.023437 0-.035156 0-4.125 0-7.480469 3.335938-7.5 7.46875-.019531 4.140626 3.324219 7.511719 7.464843 7.535157zm0 0"/><path d="m36.699219 134.886719 2.945312.011719h.035157c4.125 0 7.480468-3.332032 7.5-7.464844.019531-4.140625-3.324219-7.515625-7.464844-7.535156l-2.945313-.011719c-.011719 0-.023437 0-.035156 0-4.125 0-7.480469 3.332031-7.5 7.464843-.019531 4.140626 3.324219 7.515626 7.464844 7.535157zm0 0"/></svg>